<svg width="1920" height="935" viewBox="0 0 1920 935" fill="none" xmlns="http://www.w3.org/2000/svg">
<path d="M-20 295C198 229.5 498.109 346.109 665.5 270.5C872.5 177 1072.93 369.406 1277.5 337.5C1386.5 320.5 1646 310 1757.5 337.5C1869 365 1936.5 369.5 1986.5 337.5" stroke="#40AAFF" stroke-opacity="0.65" stroke-width="6"/>
<path d="M-20 542.955C203.5 525 279.5 603 465 561C651.299 518.819 973.79 658.387 1156.5 561C1262.5 504.5 1646 557.955 1757.5 585.455C1869 612.955 1936.5 617.455 1986.5 585.455" stroke="#40AAFF" stroke-opacity="0.65" stroke-width="6"/>
<path d="M-18.5 138C388 241.5 434 197.5 667 156.5C900 115.5 1214.01 171.079 1249 185.5C1397 246.5 1524.5 286.5 1614.5 246.5C1704.5 206.5 1955.5 163 1998.5 246.5" stroke="#40AAFF" stroke-opacity="0.65" stroke-width="6"/>
<path d="M-18.5 641C388 744.5 434 700.5 667 659.5C900 618.5 993.5 735.5 1165.5 668.5C1288.25 620.685 1510.39 622.088 1601.5 659.5C1733 713.5 1900 693.5 1965.5 668.5" stroke="#40AAFF" stroke-opacity="0.65" stroke-width="6"/>
<path d="M-17 20C210 -16.5 313.744 13.8423 380 40.5C508 92 655 97 764.5 71C874 45 1021 2.49999 1153.5 40.5C1286 78.5 1526.5 119.5 1633 71C1739.5 22.5 1812.5 23.5 1872 40.5C1931.5 57.5 1979 68.5 2020 50" stroke="#40AAFF" stroke-opacity="0.65" stroke-width="6"/>
<path d="M-10.5 801C216.5 764.5 303.244 752.342 369.5 779C497.5 830.5 627 784 736.5 758C846 732 1082 741 1214.5 779C1347 817 1450.5 779 1595.5 768.5C1712.22 760.048 1825.5 762 1885 779C1944.5 796 1979 842.494 2020 823.994" stroke="#40AAFF" stroke-opacity="0.65" stroke-width="6"/>
<path d="M-10 396.5C68.6667 416.5 246.9 456.8 330.5 458C435 459.5 638 375.5 753 396.5C868 417.5 1080.56 454.99 1170 446C1364 426.5 1452 477.5 1544.5 458C1637 438.5 1906 434 1933 446" stroke="#40AAFF" stroke-opacity="0.65" stroke-width="6"/>
<path d="M-10 865.372C68.6667 885.372 246.9 925.672 330.5 926.872C435 928.372 638 844.372 753 865.372C868 886.372 1080.56 923.862 1170 914.872C1364 895.372 1452 946.372 1544.5 926.872C1637 907.372 1906 902.872 1933 914.872" stroke="#40AAFF" stroke-opacity="0.65" stroke-width="6"/>
</svg>
